<svg xmlns="http://www.w3.org/2000/svg" viewBox="0 0 64 64" role="img" aria-label="Estações do Ano">
  <rect width="64" height="64" rx="16" fill="#f5f5f7"/>
  <circle cx="32" cy="32" r="20" fill="#0071e3" opacity="0.12"/>
  <path d="M32 12a20 20 0 1 0 0 40 20 20 0 0 0 0-40Zm0 5a15 15 0 0 1 15 15H32V17Zm-4 1v14H14a15 15 0 0 1 14-14Zm-13 18h17v13a15 15 0 0 1-17-13Zm21 12V36h12a15 15 0 0 1-12 12Z" fill="#0071e3"/>
  <path d="M32 17v15h15a15 15 0 0 0-15-15Z" fill="#ffb800"/>
  <path d="M14 32h18V18a15 15 0 0 0-18 14Z" fill="#2ecc71"/>
  <path d="M15 36a15 15 0 0 0 17 13V36H15Z" fill="#e67e22"/>
  <path d="M36 48a15 15 0 0 0 12-12H36v12Z" fill="#00a8ff"/>
</svg>
